<svg xmlns="http://www.w3.org/2000/svg" style="display: none;">
    <!-- General Icon (Settings/Cog) -->
    <symbol id="icon-general" viewBox="0 0 24 24">
        <path fill="currentColor" d="M12 15.5A3.5 3.5 0 0 1 8.5 12 3.5 3.5 0 0 1 12 8.5a3.5 3.5 0 0 1 3.5 3.5 3.5 3.5 0 0 1-3.5 3.5m7.43-2.53c.04-.32.07-.64.07-.97 0-.33-.03-.66-.07-1l2.11-1.63c.19-.15.24-.42.12-.64l-2-3.46c-.12-.22-.39-.31-.61-.22l-2.49 1c-.52-.39-1.06-.73-1.69-.98l-.37-2.65A.506.506 0 0 0 14 2h-4c-.25 0-.46.18-.5.42l-.37 2.65c-.63.25-1.17.59-1.69.98l-2.49-1c-.22-.09-.49 0-.61.22l-2 3.46c-.13.22-.07.49.12.64L4.57 11c-.04.34-.07.67-.07 1 0 .33.03.65.07.97l-2.11 1.66c-.19.15-.25.42-.12.64l2 3.46c.12.22.39.3.61.22l2.49-1.01c.52.4 1.06.74 1.69.99l.37 2.65c.04.24.25.42.5.42h4c.25 0 .46-.18.5-.42l.37-2.65c.63-.26 1.17-.59 1.69-.99l2.49 1.01c.22.08.49 0 .61-.22l2-3.46c.12-.22.07-.49-.12-.64l-2.11-1.66z"/>
    </symbol>

    <!-- Moderation Icon (Gavel/Hammer) -->
    <symbol id="icon-moderation" viewBox="0 0 24 24">
        <path fill="currentColor" d="M1 21h22L12 2 1 21zm12-3h-2v-2h2v2zm0-4h-2v-4h2v4z"/>
    </symbol>

    <!-- Automod Icon (Shield) -->
    <symbol id="icon-automod" viewBox="0 0 24 24">
        <path fill="currentColor" d="M12 1L3 5v6c0 5.55 3.84 10.74 9 12 5.16-1.26 9-6.45 9-12V5l-9-4zm0 10.99h7c-.53 4.12-3.28 7.79-7 8.94V12H5V6.3l7-3.11v8.8z"/>
    </symbol>

    <!-- Logs Icon (List/Clipboard) -->
    <symbol id="icon-logs" viewBox="0 0 24 24">
        <path fill="currentColor" d="M3 13h2v-2H3v2zm0 4h2v-2H3v2zm0-8h2V7H3v2zm4 4h14v-2H7v2zm0 4h14v-2H7v2zM7 7v2h14V7H7z"/>
    </symbol>

    <!-- Modules Icon (Puzzle/Pieces) -->
    <symbol id="icon-modules" viewBox="0 0 24 24">
        <path fill="currentColor" d="M19 3H5c-1.1 0-2 .9-2 2v14c0 1.1.9 2 2 2h14c1.1 0 2-.9 2-2V5c0-1.1-.9-2-2-2zm-7 14h-2v-4H8v-2h2V9h2v2h2v2h-2v4z"/>
    </symbol>

    <!-- Home Icon (Dashboard) -->
    <symbol id="icon-home" viewBox="0 0 24 24">
        <path fill="currentColor" d="M10 20v-6h4v6h5v-8h3L12 3 2 12h3v8z"/>
    </symbol>
</svg>